#!OML:ASF F:\VICON\USERDATA\INSTALL\rory3\rory3.ASF
:FULLY-SPECIFIED
:DEGREES
83
root 1.3347540108016192 17.812707335433142 46.76799601912336 -3.266130612679923 -2.0272097676900995 -6.628735619347822
lfemur -8.448623776691921 -0.47006024947834746 -11.765387144426597
ltibia 58.17801716481162
lfoot -7.576885202717368 1.4094036378787576
ltoes -6.45390337622008
rfemur -12.575813199910987 4.863117474797116 30.39205537505676
rtibia 29.334610141132337
rfoot -16.01741293277398 -10.781370045481587
rtoes -0.26995966537679816
lowerback 1.0 -0.5686435963616386 3.2765996782875426
upperback 0.09348090736567988 0.16653623921810928 2.8602815606162486
thorax -5.580133773414498 0.09036491850500733 1.7212333667143007
lowerneck -16.373179084341945 -2.8607426119739117 -1.287388721415589
upperneck 22.94730893268859 -3.507678396413807 -0.5302505594624924
head 10.077169280043956 -1.8136672923711545 -0.422012816746554
lclavicle -1.9599282022900642e-15 -2.423783046943064e-16
lhumerus -31.76837084577262 3.0611893393633296 82.76958919412789
lradius 20.997754850646846
lwrist 7.983107886697558
lhand -27.749160026793913 23.523322779431115
lfingers nan
lthumb -1.0779060569256185 53.37788584443761
rclavicle -1.9193086422977415e-15 -2.1020666722878945e-16
rhumerus -30.908612454776673 -25.9947091974214 -72.17408040849973
rradius 31.37945012363292
rwrist 3.6884989067385057
rhand -18.269695376963927 1.0
rfingers nan
rthumb 8.336082050276952 -8.01225623205587
84
root 1.322416065540566 17.811621268446306 46.81727713088185 -3.407404468196175 -1.9049274828936071 -6.596306486094232
lfemur -12.12729332619912 -0.20143749049633008 -11.701493816748513
ltibia 59.824142647484024
lfoot -7.798288873823576 1.5801559433143764
ltoes -7.105179484407865
rfemur -9.234482060159742 5.113792578981502 30.824413139709076
rtibia 28.52612313378862
rfoot -14.851603416636614 -10.033883932556273
rtoes -0.6162231909145324
lowerback 1.0 -0.2785875375946064 3.459803618745064
upperback 0.12987022323025488 0.570037954179291 2.7278957870872182
thorax -5.621926185673242 0.29897396293444006 1.244673110386188
lowerneck -16.399337203826068 -2.98975805952373 -1.1609531028677436
upperneck 22.662401716823695 -3.7584865156599134 -0.49203719165069637
head 9.986893385877085 -1.9017932046379011 -0.46150542710880005
lclavicle -1.954726946093182e-15 -2.4127384667245737e-16
lhumerus -32.077531472825164 3.4130712452920786 82.84582548256148
lradius 21.429548291010754
lwrist 8.20949476500381
lhand -27.689783992560585 23.483785976669438
lfingers nan
lthumb -1.001610978318297 53.36929472092898
rclavicle -1.9091121458206654e-15 -2.041209710508193e-16
rhumerus -30.490241641542767 -25.58866370294552 -72.11593281877438
rradius 31.451271941640126
rwrist 3.596178565652523
rhand -18.294170033373955 1.0
rfingers nan
rthumb 8.26799081205601 -8.080593097338797
85
root 1.3509740214817658 17.835743223990978 48.112149700437726 -3.252180968529014 -1.3496542840411456 -6.474560636308954
lfemur -15.384212603320897 -0.3863314836883287 -12.256898109613722
ltibia 59.8272827477685
lfoot -9.225392425021777 1.503354190646839
ltoes -7.399286112862096
rfemur -7.169485650920244 4.751246378872374 30.539624423696868
rtibia 28.28534925066452
rfoot -12.674373833565799 -8.970184697377046
rtoes -0.41852643956894786
lowerback 1.0 -0.04333607361172248 3.768034415437873
upperback 0.14145941840946674 0.9781634881948026 2.5950941889232952
thorax -5.555608347052166 0.49187354056912036 0.7075763598216129
lowerneck -16.28976642236329 -3.1039054155497525 -1.113714661201432
upperneck 22.50173861531412 -3.9819439963585896 -0.4382364005882837
head 9.924726624464352 -1.9789526605095982 -0.48208436111662023
lclavicle -1.951640220488462e-15 -2.411090364392183e-16
lhumerus -32.310921639053156 3.525238953200524 82.8678902212833
lradius 21.94787770571051
lwrist 8.295574105276879
lhand -27.61119947976385 23.447594342816487
lfingers nan
lthumb -0.9698647842117041 53.33612633063929
rclavicle -1.9031785912968204e-15 -2.0095127056377324e-16
rhumerus -30.05863769064605 -25.185646618291596 -72.19506348569597
rradius 31.535465628902454
rwrist 3.51942304699606
rhand -18.25692217551607 1.0
rfingers nan
rthumb 8.321088969894056 -7.942360564787426
86
root 1.3681633834297642 17.854471350373434 47.74531042094225 -3.377195854108702 -0.9005572883192651 -6.378041733777618
lfemur -18.11495397407961 -0.8857117983733191 -13.150634972686522
ltibia 58.361028911615406
lfoot -9.425325786356606 2.6292693429652663
ltoes -8.518639693169279
rfemur -5.461025951650434 4.548041677702579 30.452224397428022
rtibia 28.653146282404236
rfoot -9.614635823392844 -7.875913723428813
rtoes 0.22877890936580147
lowerback 1.0 0.17857471768252764 3.9590148870805373
upperback 0.09110294653046838 1.3176103115030946 2.4175638484382733
thorax -5.491384846030051 0.6319673072639815 0.09717314011498601
lowerneck -16.109848148041493 -3.1979167428487485 -1.1547175866827022
upperneck 22.544797899516283 -4.169449117543415 -0.3745765627032642
head 9.924455222101932 -2.0424002264093413 -0.48751291549016573
lclavicle -1.9466147911991567e-15 -2.395809662256562e-16
lhumerus -32.4159816514526 3.467619852600069 82.83574554296541
lradius 22.533753621803065
lwrist 8.221509386065167
lhand -27.541030550417993 23.42649326379537
lfingers nan
lthumb -0.8810039405419099 53.34615524451568
rclavicle -1.896992424223892e-15 -1.977276610831974e-16
rhumerus -29.612550736976893 -24.71467654114162 -72.3660636748971
rradius 31.60931096117259
rwrist 3.4537025151573495
rhand -18.290989079767837 1.0
rfingers nan
rthumb 8.277356030349013 -7.992448769145726
87
root 1.3630459722479038 17.85424185980587 46.98787379318921 -3.599962738808155 -0.6357424191312598 -6.7524382087124835
lfemur -19.86804078867013 -1.393181782674093 -13.50285636959182
ltibia 55.510259365063206
lfoot -9.175558317234454 3.989571604707282
ltoes -9.712276392646045
rfemur -5.123915275667114 4.454121051428226 30.490188827626426
rtibia 29.890532215314025
rfoot -6.289042096619582 -7.311368992433524
rtoes 1.5134256497620613
lowerback 1.0 0.3664947470082639 4.316734897883846
upperback 0.035261045020908766 1.5951673398179045 2.2471453756722806
thorax -5.415853299271852 0.7533920473487032 -0.42103755577431223
lowerneck -15.90302736914108 -3.2543133009439407 -1.2049030950080426
upperneck 22.76667418085144 -4.290432227890205 -0.3223451499413842
head 9.981839331696134 -2.0837810070759164 -0.48592212133599744
lclavicle -1.939109774133345e-15 -2.362221042492455e-16
lhumerus -32.29940774841384 3.342525944449703 82.7740995979604
lradius 23.13878784904067
lwrist 8.056644773749207
lhand -27.535539297027743 23.31852173851067
lfingers nan
lthumb -0.8718412401711136 53.30017591994433
rclavicle -1.889854827204035e-15 -1.9388214320817793e-16
rhumerus -29.17246893941075 -24.14801352634351 -72.59877393241317
rradius 31.68564707633801
rwrist 3.412347826338312
rhand -18.266194472855386 1.0
rfingers nan
rthumb 8.32840356596587 -7.890899831807391
